<svg xmlns="http://www.w3.org/2000/svg" xmlns:xlink="http://www.w3.org/1999/xlink" class="main-svg" width="1100" height="650" style="" viewBox="0 0 1100 650"><rect x="0" y="0" width="1100" height="650" style="fill: rgb(255, 255, 255); fill-opacity: 1;"/><defs id="defs-77e688"><g class="clips"><clipPath id="clip77e688xyplot" class="plotclip"><rect width="940" height="450"/></clipPath><clipPath class="axesclip" id="clip77e688x"><rect x="80" y="0" width="940" height="650"/></clipPath><clipPath class="axesclip" id="clip77e688y"><rect x="0" y="120" width="1100" height="450"/></clipPath><clipPath class="axesclip" id="clip77e688xy"><rect x="80" y="120" width="940" height="450"/></clipPath></g><g class="gradients"/><g class="patterns"/></defs><g class="bglayer"/><g class="layer-below"><g class="imagelayer"/><g class="shapelayer"/></g><g class="cartesianlayer"><g class="subplot xy"><g class="layer-subplot"><g class="shapelayer"/><g class="imagelayer"/></g><g class="minor-gridlayer"><g class="x"/><g class="y"/></g><g class="gridlayer"><g class="x"/><g class="y"><path class="ygrid crisp" transform="translate(0,553.0699999999999)" d="M80,0h940" style="stroke: rgb(245, 245, 245); stroke-opacity: 1; stroke-width: 1px;"/><path class="ygrid crisp" transform="translate(0,465.87)" d="M80,0h940" style="stroke: rgb(245, 245, 245); stroke-opacity: 1; stroke-width: 1px;"/><path class="ygrid crisp" transform="translate(0,378.68)" d="M80,0h940" style="stroke: rgb(245, 245, 245); stroke-opacity: 1; stroke-width: 1px;"/><path class="ygrid crisp" transform="translate(0,291.48)" d="M80,0h940" style="stroke: rgb(245, 245, 245); stroke-opacity: 1; stroke-width: 1px;"/><path class="ygrid crisp" transform="translate(0,204.28)" d="M80,0h940" style="stroke: rgb(245, 245, 245); stroke-opacity: 1; stroke-width: 1px;"/></g></g><g class="zerolinelayer"><path class="xzl zl crisp" transform="translate(80.5,0)" d="M0,120v450" style="stroke: rgb(255, 255, 255); stroke-opacity: 1; stroke-width: 2px;"/></g><g class="layer-between"><g class="shapelayer"/><g class="imagelayer"/></g><path class="xlines-below"/><path class="ylines-below"/><g class="overlines-below"/><g class="xaxislayer-below"/><g class="yaxislayer-below"/><g class="overaxes-below"/><g class="overplot"><g class="xy" transform="translate(80,120)" clip-path="url(#clip77e688xyplot)"><g class="scatterlayer mlayer"><g class="trace scatter trace8c5862" style="stroke-miterlimit: 2; opacity: 1;"><g class="fills"/><g class="errorbars"/><g class="lines"><path class="js-line" d="M0.5,341.1L2.38,341.87L4.26,335.79L6.15,322.07L8.03,323.68L9.91,325.28L11.79,311.08L13.67,303.95L15.55,307.61L17.44,302.44L19.32,306.05L21.2,309.67L23.08,307.13L26.84,337.98L28.73,342.44L30.61,350.84L32.49,347.66L34.37,355.15L36.25,367.02L38.14,353.81L40.02,355.34L41.9,354.32L43.78,366.3L45.66,370.61L47.54,369.21L49.43,378.81L51.31,375.1L53.19,379.9L55.07,382.01L56.95,386.82L58.83,370.23L60.72,369.91L62.6,378.7L64.48,371.09L66.36,381.3L68.24,379.04L70.13,395.7L72.01,406.84L73.89,404.69L75.77,397.81L77.65,395.88L79.53,396.46L81.42,398.64L83.3,411.1L85.18,416.94L87.06,420.52L88.94,410.87L90.82,407.44L92.71,422.37L94.59,419.11L96.47,422.03L98.35,427.5L100.23,421.73L104,403.75L105.88,410.63L107.76,412.89L109.64,409.57L111.52,400.62L113.41,404.37L115.29,405.55L117.17,414.76L119.05,424.75L120.93,417.23L122.81,404.97L124.7,405.16L126.58,395.98L128.46,392.39L130.34,397.58L132.22,393.99L134.11,380.14L135.99,380.02L137.87,365.94L139.75,388.35L141.63,380.74L143.51,379.55L145.4,381.72L147.28,380.48L149.16,397.38L151.04,398.86L152.92,395.31L154.8,381.99L156.69,386.07L158.57,392.68L160.45,396.62L162.33,388.2L164.21,384.9L166.1,389.08L167.98,384.17L169.86,382.89L171.74,374.01L173.62,379.69L177.39,385.1L179.27,397.42L183.03,391.69L184.91,391.21L186.79,392.82L188.68,404.73L192.44,410.51L194.32,417.07L196.2,418.04L198.09,414.08L199.97,397.2L201.85,395.24L203.73,392.56L205.61,392.77L207.49,409.07L209.38,408.86L211.26,407.9L213.14,385.99L215.02,387.23L216.9,384.16L218.78,384.03L220.67,393.79L224.43,376.39L226.31,369.06L228.19,376.55L230.08,363.88L231.96,375.67L233.84,370.12L235.72,350.58L237.6,358.78L239.48,363.29L241.37,361.98L243.25,365.93L245.13,379.02L247.01,377.99L248.89,386.81L250.77,382.25L252.66,389.83L254.54,375.88L256.42,382.27L258.3,384.64L260.18,377.11L262.07,387.41L263.95,384.99L265.83,373.16L267.71,386.74L271.47,381.99L273.36,374.74L277.12,396.16L279,391.18L284.65,382.08L286.53,387.57L290.29,382.12L292.17,387.91L294.06,371.2L295.94,366.64L297.82,376.59L299.7,370.43L301.58,378.49L303.46,371.19L305.35,360.65L307.23,367.37L309.11,358.54L310.99,354.5L312.87,346.9L314.75,329.92L316.64,331.63L318.52,337.76L322.28,351.76L324.16,352L327.93,345.74L329.81,338.09L331.69,337.54L333.57,324.43L335.45,326.3L337.34,302.15L339.22,296.25L341.1,303.29L342.98,312.19L344.86,307.55L346.74,309.06L348.63,302.4L350.51,297.84L352.39,298.04L354.27,304.99L356.15,317.76L358.04,321.22L359.92,313.31L361.8,311.01L363.68,321.44L365.56,319.49L367.44,315.69L369.33,322.97L371.21,321.19L373.09,320.25L374.97,329.78L376.85,326.22L378.73,320.89L382.5,301.39L384.38,312.97L386.26,320.71L388.14,315.78L391.91,305.94L393.79,271.91L395.67,266.49L397.55,256.16L401.32,241.29L403.2,243.6L405.08,236.55L406.96,242.85L408.84,244.48L410.72,248.27L412.61,247.12L414.49,226.51L416.37,242.35L418.25,235.93L420.13,249.56L422.02,253.24L423.9,243.31L425.78,242.31L429.54,257.07L431.42,250.71L433.31,256.64L435.19,254.32L437.07,253.49L438.95,258.73L440.83,239.6L442.71,233.64L444.6,250.86L446.48,248.8L448.36,254.13L450.24,246.26L452.12,252.74L454.01,253.3L455.89,248.46L457.77,240.48L459.65,250.51L461.53,252.99L465.3,261.96L467.18,246.13L469.06,242.16L470.94,252.72L472.82,244.28L474.7,225.34L476.59,215.9L478.47,228.71L480.35,232.5L482.23,221.01L484.11,226.75L485.99,222.44L487.88,215.25L489.76,222.9L491.64,222.98L493.52,250.81L495.4,259.3L497.29,261.07L499.17,271.51L501.05,256.84L502.93,268.88L504.81,272.28L506.69,270.7L508.58,257.7L510.46,269.78L512.34,259.21L514.22,258.68L516.1,266.8L517.98,262.34L519.87,260.17L521.75,264.96L523.63,263.92L525.51,266.84L527.39,265.42L529.28,259.21L531.16,244.94L533.04,255.3L534.92,236.27L536.8,252.85L538.68,253.74L540.57,248.17L542.45,245.29L544.33,250.28L546.21,251.66L549.97,260.22L551.86,252.38L553.74,248.83L555.62,254.44L557.5,246.16L559.38,243.04L563.15,229.59L565.03,236.38L566.91,240.83L568.79,233.88L570.67,228.12L572.56,227.87L574.44,226.41L576.32,214.83L578.2,219.56L580.08,214.35L583.85,217.14L585.73,207.12L589.49,191.96L591.37,180.14L593.26,179.52L595.14,173.14L597.02,175.41L598.9,172.14L600.78,172.84L602.66,171.56L604.55,165.94L606.43,172.63L608.31,153.95L610.19,162.29L612.07,172.44L613.95,161.91L619.6,142.78L621.48,142.45L623.36,149.83L625.25,148.74L627.13,154.21L629.01,145.27L630.89,146.11L632.77,152.88L634.65,155.24L636.54,151.21L638.42,155.68L640.3,162.42L644.06,157.29L645.94,161.27L647.83,164.94L649.71,162.48L653.47,186.51L655.35,192.34L657.24,193.76L659.12,190.62L661,177.31L662.88,169.4L664.76,170.36L666.64,170.09L668.53,178.39L670.41,178.12L672.29,180.2L674.17,176.95L676.05,183.73L677.93,178.76L679.82,164.96L681.7,165.48L683.58,161.54L685.46,155.08L687.34,158.15L689.23,155.76L692.99,153.92L694.87,160.23L696.75,159.58L698.63,154.8L702.4,132.91L704.28,113.7L706.16,119.95L708.04,111.91L709.92,109.88L711.81,90.35L717.45,108.63L719.33,126.72L721.22,130.87L723.1,137.05L724.98,135.3L726.86,131.89L728.74,115.09L730.62,106.37L732.51,110.96L734.39,118.36L736.27,113.63L738.15,124.71L741.91,97.58L743.8,101.24L745.68,115.74L747.56,103.5L749.44,104.06L751.32,92.83L753.21,106.3L755.09,111.09L758.85,109.76L760.73,113.25L762.61,107.38L764.5,116.26L766.38,117.06L768.26,115.58L772.02,104.02L773.9,113.39L775.79,126.33L777.67,114.75L779.55,111.42L781.43,117.51L783.31,103.55L785.2,102.1L787.08,91.38L788.96,90.36L792.72,56.21L794.6,57.95L800.25,30.61L802.13,38.58L804.01,32.16L805.89,22.5L811.54,64.63L813.42,66.54L815.3,59.85L817.19,46.31L819.07,45.23L820.95,30.59L824.71,56.61L826.59,56.66L828.48,52.87L830.36,52.72L832.24,70.31L834.12,70.65L836,81.59L837.88,75.31L839.77,71.68L841.65,79.44L843.53,83.49L845.41,92.29L847.29,92.4L849.18,83.63L851.06,91.79L852.94,86.96L854.82,91.15L856.7,97.63L858.58,98.12L860.47,106.71L862.35,111.11L864.23,121.11L866.11,103.55L867.99,102.8L869.87,108.47L871.76,106.17L873.64,106.71L875.52,108.2L879.28,95.37L881.17,99.56L883.05,104.14L884.93,106.11L888.69,138.52L890.57,126.16L892.46,111.38L894.34,113.12L896.22,107.66L898.1,104.51L899.98,77.22L901.86,67.03L903.75,67.7L905.63,75.6L907.51,89.17L909.39,86.96L911.27,93.12L913.16,105.09L915.04,110.29L916.92,119.28L918.8,104.14L920.68,96.01L922.56,95.65L924.45,82.31L926.33,81.19L928.21,88.27L930.09,74.55L931.97,69.42L933.85,78.03L935.74,79.25L937.62,86.45L939.5,98.07" style="vector-effect: none; fill: none; stroke: rgb(26, 35, 126); stroke-opacity: 1; stroke-width: 2px; opacity: 1;"/></g><g class="points"/><g class="text"/></g></g></g></g><g class="zerolinelayer-above"/><path class="xlines-above crisp" d="M0,0" style="fill: none;"/><path class="ylines-above crisp" d="M0,0" style="fill: none;"/><g class="overlines-above"/><g class="xaxislayer-above"><g class="xtick"><text text-anchor="middle" x="0" y="583" transform="translate(80.5,0)" style="font-family: 'Open Sans', verdana, arial, sans-serif; font-size: 12px; fill: rgb(42, 63, 95); fill-opacity: 1; white-space: pre;">0</text></g><g class="xtick"><text text-anchor="middle" x="0" y="583" style="font-family: 'Open Sans', verdana, arial, sans-serif; font-size: 12px; fill: rgb(42, 63, 95); fill-opacity: 1; white-space: pre;" transform="translate(268.3,0)">20</text></g><g class="xtick"><text text-anchor="middle" x="0" y="583" style="font-family: 'Open Sans', verdana, arial, sans-serif; font-size: 12px; fill: rgb(42, 63, 95); fill-opacity: 1; white-space: pre;" transform="translate(456.1,0)">40</text></g><g class="xtick"><text text-anchor="middle" x="0" y="583" style="font-family: 'Open Sans', verdana, arial, sans-serif; font-size: 12px; fill: rgb(42, 63, 95); fill-opacity: 1; white-space: pre;" transform="translate(643.9,0)">60</text></g><g class="xtick"><text text-anchor="middle" x="0" y="583" style="font-family: 'Open Sans', verdana, arial, sans-serif; font-size: 12px; fill: rgb(42, 63, 95); fill-opacity: 1; white-space: pre;" transform="translate(831.7,0)">80</text></g><g class="xtick"><text text-anchor="middle" x="0" y="583" style="font-family: 'Open Sans', verdana, arial, sans-serif; font-size: 12px; fill: rgb(42, 63, 95); fill-opacity: 1; white-space: pre;" transform="translate(1019.5,0)">100</text></g></g><g class="yaxislayer-above"><g class="ytick"><text text-anchor="end" x="79" y="4.199999999999999" transform="translate(0,553.0699999999999)" style="font-family: 'Open Sans', verdana, arial, sans-serif; font-size: 12px; fill: rgb(42, 63, 95); fill-opacity: 1; white-space: pre;">90</text></g><g class="ytick"><text text-anchor="end" x="79" y="4.199999999999999" style="font-family: 'Open Sans', verdana, arial, sans-serif; font-size: 12px; fill: rgb(42, 63, 95); fill-opacity: 1; white-space: pre;" transform="translate(0,465.87)">100</text></g><g class="ytick"><text text-anchor="end" x="79" y="4.199999999999999" style="font-family: 'Open Sans', verdana, arial, sans-serif; font-size: 12px; fill: rgb(42, 63, 95); fill-opacity: 1; white-space: pre;" transform="translate(0,378.68)">110</text></g><g class="ytick"><text text-anchor="end" x="79" y="4.199999999999999" style="font-family: 'Open Sans', verdana, arial, sans-serif; font-size: 12px; fill: rgb(42, 63, 95); fill-opacity: 1; white-space: pre;" transform="translate(0,291.48)">120</text></g><g class="ytick"><text text-anchor="end" x="79" y="4.199999999999999" style="font-family: 'Open Sans', verdana, arial, sans-serif; font-size: 12px; fill: rgb(42, 63, 95); fill-opacity: 1; white-space: pre;" transform="translate(0,204.28)">130</text></g></g><g class="overaxes-above"/></g></g><g class="polarlayer"/><g class="smithlayer"/><g class="ternarylayer"/><g class="geolayer"/><g class="funnelarealayer"/><g class="pielayer"/><g class="iciclelayer"/><g class="treemaplayer"/><g class="sunburstlayer"/><g class="glimages"/><defs id="topdefs-77e688"><g class="clips"/></defs><g class="layer-above"><g class="imagelayer"/><g class="shapelayer"><g class="shape-group" data-index="0" clip-path="url(#clip77e688x)"><path data-index="0" fill-rule="evenodd" d="M80.5,570H409.15V120H80.5Z" style="opacity: 1; stroke: rgb(100, 100, 100); stroke-opacity: 0.4; fill: rgb(0, 0, 0); fill-opacity: 0; stroke-dasharray: 3px, 3px; stroke-width: 1px;"/></g><g class="shape-group" data-index="1" clip-path="url(#clip77e688x)"><path data-index="1" fill-rule="evenodd" d="M409.15,570H690.85V120H409.15Z" style="opacity: 1; stroke: rgb(100, 100, 100); stroke-opacity: 0.4; fill: rgb(0, 0, 0); fill-opacity: 0; stroke-dasharray: 3px, 3px; stroke-width: 1px;"/></g><g class="shape-group" data-index="2" clip-path="url(#clip77e688x)"><path data-index="2" fill-rule="evenodd" d="M690.85,570H1019.5V120H690.85Z" style="opacity: 1; stroke: rgb(100, 100, 100); stroke-opacity: 0.4; fill: rgb(0, 0, 0); fill-opacity: 0; stroke-dasharray: 3px, 3px; stroke-width: 1px;"/></g><g class="shape-group" data-index="3" clip-path="url(#clip77e688x)"><path data-index="3" fill-rule="evenodd" d="M371.59,570H446.71V120H371.59Z" style="opacity: 0.4; stroke: rgb(0, 0, 0); stroke-opacity: 0; fill: rgb(46, 204, 113); fill-opacity: 1; stroke-width: 0px;"/><g data-index="3" class="shape-label"><text data-notex="1" class="shape-label-text" x="409.15" y="133" style="font-family: 'Open Sans', verdana, arial, sans-serif; font-size: 10px; fill: rgb(27, 94, 32); fill-opacity: 1; font-weight: bold; white-space: pre;" text-anchor="middle" transform="rotate(0,409.15,133)">Purging</text></g></g><g class="shape-group" data-index="4" clip-path="url(#clip77e688x)"><path data-index="4" fill-rule="evenodd" d="M653.29,570H728.41V120H653.29Z" style="opacity: 0.4; stroke: rgb(0, 0, 0); stroke-opacity: 0; fill: rgb(46, 204, 113); fill-opacity: 1; stroke-width: 0px;"/><g data-index="4" class="shape-label"><text data-notex="1" class="shape-label-text" x="690.8499999999999" y="133" style="font-family: 'Open Sans', verdana, arial, sans-serif; font-size: 10px; fill: rgb(27, 94, 32); fill-opacity: 1; font-weight: bold; white-space: pre;" text-anchor="middle" transform="rotate(0,690.8499999999999,133)">Purging</text></g></g><g class="shape-group" data-index="5" clip-path="url(#clip77e688x)"><path data-index="5" fill-rule="evenodd" d="M728.41,570H841.09V120H728.41Z" style="opacity: 0.3; stroke: rgb(0, 0, 0); stroke-opacity: 0; fill: rgb(231, 76, 60); fill-opacity: 1; stroke-width: 0px;"/><g data-index="5" class="shape-label"><text data-notex="1" class="shape-label-text" x="784.75" y="133" style="font-family: 'Open Sans', verdana, arial, sans-serif; font-size: 10px; fill: rgb(183, 28, 28); fill-opacity: 1; font-weight: bold; white-space: pre;" text-anchor="middle" transform="rotate(0,784.75,133)">Embargo</text></g></g></g></g><g class="infolayer"><g class="g-gtitle"><text class="gtitle" x="550" y="60" text-anchor="middle" dy="0em" style="opacity: 1; font-family: Arial; font-size: 22px; fill: rgb(42, 63, 95); fill-opacity: 1; white-space: pre;"><tspan class="line" dy="0em" x="550" y="60"><tspan style="font-weight:bold">Purging &amp; Embargo Techniques</tspan></tspan><tspan class="line" dy="1.3em" x="550" y="60">​<tspan style="font-size:70%" dy="-0.6em">Institutional Standard for Cross-Validation</tspan><tspan dy="0.42em">​</tspan></tspan></text></g><g class="g-xtitle"><text class="xtitle" x="550" y="609.8" text-anchor="middle" style="opacity: 1; font-family: 'Open Sans', verdana, arial, sans-serif; font-size: 14px; fill: rgb(42, 63, 95); fill-opacity: 1; white-space: pre;">Time Horizon / Observations</text></g><g class="g-ytitle"><text class="ytitle" transform="rotate(-90,36.709375,345)" x="36.709375" y="345" text-anchor="middle" style="opacity: 1; font-family: 'Open Sans', verdana, arial, sans-serif; font-size: 14px; fill: rgb(42, 63, 95); fill-opacity: 1; white-space: pre;">Price</text></g><g class="annotation" data-index="0" style="opacity: 1;"><g class="annotation-text-g" transform="rotate(0,244.83,106.99999999999997)"><g class="cursor-pointer" transform="translate(221,97)"><rect class="bg" x="0.5" y="0.5" width="47" height="18" style="stroke-width: 1px; stroke: rgb(0, 0, 0); stroke-opacity: 0; fill: rgb(0, 0, 0); fill-opacity: 0;"/><text class="annotation-text" text-anchor="middle" x="23.796875" y="14" style="font-family: 'Open Sans', verdana, arial, sans-serif; font-size: 12px; fill: rgb(66, 66, 66); fill-opacity: 1; white-space: pre;"><tspan style="font-weight:bold">TRAIN</tspan></text></g></g></g><g class="annotation" data-index="1" style="opacity: 1;"><g class="annotation-text-g" transform="rotate(0,550,106.99999999999997)"><g class="cursor-pointer" transform="translate(532,97)"><rect class="bg" x="0.5" y="0.5" width="36" height="18" style="stroke-width: 1px; stroke: rgb(0, 0, 0); stroke-opacity: 0; fill: rgb(0, 0, 0); fill-opacity: 0;"/><text class="annotation-text" text-anchor="middle" x="18.546875" y="14" style="font-family: 'Open Sans', verdana, arial, sans-serif; font-size: 12px; fill: rgb(66, 66, 66); fill-opacity: 1; white-space: pre;"><tspan style="font-weight:bold">TEST</tspan></text></g></g></g><g class="annotation" data-index="2" style="opacity: 1;"><g class="annotation-text-g" transform="rotate(0,855.18,106.99999999999997)"><g class="cursor-pointer" transform="translate(831,97)"><rect class="bg" x="0.5" y="0.5" width="47" height="18" style="stroke-width: 1px; stroke: rgb(0, 0, 0); stroke-opacity: 0; fill: rgb(0, 0, 0); fill-opacity: 0;"/><text class="annotation-text" text-anchor="middle" x="23.796875" y="14" style="font-family: 'Open Sans', verdana, arial, sans-serif; font-size: 12px; fill: rgb(66, 66, 66); fill-opacity: 1; white-space: pre;"><tspan style="font-weight:bold">TRAIN</tspan></text></g></g></g></g></svg>